<?xml version="1.0" ?>
<svg  id="Layer_2" style="enable-background:new 0 0 32 32;" version="1.1"
      fill="grey"
      viewBox="0 0 32 32" xml:space="preserve"
     xmlns="http://www.w3.org/2000/svg" xmlns:xlink="http://www.w3.org/1999/xlink"><g><path d="M0.73828,11.81177c0.44727,0.69531,1.375,0.89648,2.07275,0.4502L16,3.78345l13.18848,8.47852   c0.25098,0.16113,0.53223,0.23828,0.81055,0.23828c0.49316,0,0.97656-0.24316,1.2627-0.68848   c0.44824-0.69727,0.24609-1.625-0.4502-2.07324l-14.00049-9c-0.49414-0.31836-1.12793-0.31836-1.62207,0l-14,9   C0.49219,10.18677,0.29004,11.1145,0.73828,11.81177z"/><path
  d="M27.5,12.78998c0-0.83002-0.66998-1.5-1.5-1.5s-1.5,0.66998-1.5,1.5V26c0,1.38-1.12,2.5-2.5,2.5h-0.84003v-4.29999   c0-2.84003-2.31-5.16003-5.15997-5.16003s-5.15997,2.32001-5.15997,5.16003V28.5H10c-1.38,0-2.5-1.12-2.5-2.5V12.78998   c0-0.83002-0.66998-1.5-1.5-1.5s-1.5,0.66998-1.5,1.5V26c0,3.02997,2.46997,5.5,5.5,5.5h12c3.03003,0,5.5-2.47003,5.5-5.5V12.78998   z"/></g></svg>
